HIERARCHY
ROOT Hips
{
    OFFSET   0.000000   0.000000   0.000000
    CHANNELS 6 Xposition Yposition Zposition Zrotation Xrotation Yrotation
    JOINT Chest
    {
        OFFSET   0.000000   8.007240   0.000000
        CHANNELS 3 Zrotation Xrotation Yrotation
        JOINT Chest2
        {
            OFFSET   0.000000  22.077100   0.000000
            CHANNELS 3 Zrotation Xrotation Yrotation
            JOINT Neck
            {
                OFFSET   0.000000  23.254800   0.000000
                CHANNELS 3 Zrotation Xrotation Yrotation
                JOINT Head
                {
                    OFFSET   0.000000  14.370000   1.956600
                    CHANNELS 3 Zrotation Xrotation Yrotation
                    End Site
                    {
                        OFFSET   0.000000  19.566000   0.000000
                    }
                }
            }
            JOINT LeftCollar
            {
                OFFSET   3.911900  19.017000  -0.467064
                CHANNELS 3 Zrotation Xrotation Yrotation
                JOINT LeftShoulder
                {
                    OFFSET  10.383700   0.000000   0.000000
                    CHANNELS 3 Zrotation Xrotation Yrotation
                    JOINT LeftElbow
                    {
                        OFFSET  26.662100   0.001476   0.000517
                        CHANNELS 3 Zrotation Xrotation Yrotation
                        JOINT LeftWrist
                        {
                            OFFSET  28.869000  -0.000025  -0.000106
                            CHANNELS 3 Zrotation Xrotation Yrotation
                            JOINT LeftFinger0
                            {
                                OFFSET   2.044660  -2.323460   3.252850
                                CHANNELS 3 Zrotation Xrotation Yrotation
                                JOINT LeftFinger01
                                {
                                    OFFSET   3.088130   0.000000   0.000000
                                    CHANNELS 3 Zrotation Xrotation Yrotation
                                    JOINT LeftFinger02
                                    {
                                        OFFSET   2.639460   0.000000   0.000000
                                        CHANNELS 3 Zrotation Xrotation Yrotation
                                        End Site
                                        {
                                            OFFSET   2.582190   0.000000   0.000000
                                        }
                                    }
                                }
                            }
                            JOINT LeftFinger1
                            {
                                OFFSET   8.364480   0.000000   3.252850
                                CHANNELS 3 Zrotation Xrotation Yrotation
                                JOINT LeftFinger11
                                {
                                    OFFSET   4.646930   0.000000   0.000000
                                    CHANNELS 3 Zrotation Xrotation Yrotation
                                    JOINT LeftFinger12
                                    {
                                        OFFSET   2.323460   0.000000   0.000000
                                        CHANNELS 3 Zrotation Xrotation Yrotation
                                        End Site
                                        {
                                            OFFSET   2.273050   0.000000   0.000000
                                        }
                                    }
                                }
                            }
                            JOINT LeftFinger2
                            {
                                OFFSET   8.364490   0.000015   1.078090
                                CHANNELS 3 Zrotation Xrotation Yrotation
                                JOINT LeftFinger21
                                {
                                    OFFSET   5.111620   0.000000   0.000000
                                    CHANNELS 3 Zrotation Xrotation Yrotation
                                    JOINT LeftFinger22
                                    {
                                        OFFSET   2.788160   0.000016   0.000000
                                        CHANNELS 3 Zrotation Xrotation Yrotation
                                        End Site
                                        {
                                            OFFSET   2.727660   0.000000   0.000000
                                        }
                                    }
                                }
                            }
                            JOINT LeftFinger3
                            {
                                OFFSET   7.899780   0.000017  -1.078090
                                CHANNELS 3 Zrotation Xrotation Yrotation
                                JOINT LeftFinger31
                                {
                                    OFFSET   4.646930   0.000000   0.000000
                                    CHANNELS 3 Zrotation Xrotation Yrotation
                                    JOINT LeftFinger32
                                    {
                                        OFFSET   2.323470   0.000000   0.000000
                                        CHANNELS 3 Zrotation Xrotation Yrotation
                                        End Site
                                        {
                                            OFFSET   2.273050   0.000000   0.000000
                                        }
                                    }
                                }
                            }
                            JOINT LeftFinger4
                            {
                                OFFSET   7.435090   0.000000  -3.252850
                                CHANNELS 3 Zrotation Xrotation Yrotation
                                JOINT LeftFinger41
                                {
                                    OFFSET   3.717550   0.000000   0.000000
                                    CHANNELS 3 Zrotation Xrotation Yrotation
                                    JOINT LeftFinger42
                                    {
                                        OFFSET   1.858770   0.000000   0.000000
                                        CHANNELS 3 Zrotation Xrotation Yrotation
                                        End Site
                                        {
                                            OFFSET   1.818440   0.000000   0.000000
                                        }
                                    }
                                }
                            }
                        }
                    }
                }
            }
            JOINT RightCollar
            {
                OFFSET  -3.911900  19.017000  -0.467063
                CHANNELS 3 Zrotation Xrotation Yrotation
                JOINT RightShoulder
                {
                    OFFSET -10.383700   0.000019   0.000000
                    CHANNELS 3 Zrotation Xrotation Yrotation
                    JOINT RightElbow
                    {
                        OFFSET -26.662100   0.001175   0.000102
                        CHANNELS 3 Zrotation Xrotation Yrotation
                        JOINT RightWrist
                        {
                            OFFSET -28.869000   0.000016  -0.000079
                            CHANNELS 3 Zrotation Xrotation Yrotation
                            JOINT RightFinger0
                            {
                                OFFSET  -2.044660  -2.323490   3.252850
                                CHANNELS 3 Zrotation Xrotation Yrotation
                                JOINT RightFinger01
                                {
                                    OFFSET  -3.088140   0.000000   0.000000
                                    CHANNELS 3 Zrotation Xrotation Yrotation
                                    JOINT RightFinger02
                                    {
                                        OFFSET  -2.639460   0.000000   0.000000
                                        CHANNELS 3 Zrotation Xrotation Yrotation
                                        End Site
                                        {
                                            OFFSET  -2.582190   0.000000   0.000000
                                        }
                                    }
                                }
                            }
                            JOINT RightFinger1
                            {
                                OFFSET  -8.364480   0.000000   3.252850
                                CHANNELS 3 Zrotation Xrotation Yrotation
                                JOINT RightFinger11
                                {
                                    OFFSET  -4.646930   0.000000   0.000000
                                    CHANNELS 3 Zrotation Xrotation Yrotation
                                    JOINT RightFinger12
                                    {
                                        OFFSET  -2.323470   0.000000   0.000000
                                        CHANNELS 3 Zrotation Xrotation Yrotation
                                        End Site
                                        {
                                            OFFSET  -2.273050   0.000000   0.000000
                                        }
                                    }
                                }
                            }
                            JOINT RightFinger2
                            {
                                OFFSET  -8.364480   0.000000   1.078090
                                CHANNELS 3 Zrotation Xrotation Yrotation
                                JOINT RightFinger21
                                {
                                    OFFSET  -5.111620   0.000000   0.000000
                                    CHANNELS 3 Zrotation Xrotation Yrotation
                                    JOINT RightFinger22
                                    {
                                        OFFSET  -2.788160   0.000000   0.000000
                                        CHANNELS 3 Zrotation Xrotation Yrotation
                                        End Site
                                        {
                                            OFFSET  -2.727660   0.000000   0.000000
                                        }
                                    }
                                }
                            }
                            JOINT RightFinger3
                            {
                                OFFSET  -7.899780   0.000000  -1.078090
                                CHANNELS 3 Zrotation Xrotation Yrotation
                                JOINT RightFinger31
                                {
                                    OFFSET  -4.646930   0.000000   0.000000
                                    CHANNELS 3 Zrotation Xrotation Yrotation
                                    JOINT RightFinger32
                                    {
                                        OFFSET  -2.323470   0.000000   0.000000
                                        CHANNELS 3 Zrotation Xrotation Yrotation
                                        End Site
                                        {
                                            OFFSET  -2.273050   0.000000   0.000000
                                        }
                                    }
                                }
                            }
                            JOINT RightFinger4
                            {
                                OFFSET  -7.435090   0.000000  -3.252850
                                CHANNELS 3 Zrotation Xrotation Yrotation
                                JOINT RightFinger41
                                {
                                    OFFSET  -3.717550   0.000000   0.000000
                                    CHANNELS 3 Zrotation Xrotation Yrotation
                                    JOINT RightFinger42
                                    {
                                        OFFSET  -1.858770   0.000000   0.000000
                                        CHANNELS 3 Zrotation Xrotation Yrotation
                                        End Site
                                        {
                                            OFFSET  -1.818440   0.000000   0.000000
                                        }
                                    }
                                }
                            }
                        }
                    }
                }
            }
        }
    }
    JOINT LeftHip
    {
        OFFSET   9.783040   0.000000   0.000000
        CHANNELS 3 Zrotation Xrotation Yrotation
        JOINT LeftKnee
        {
            OFFSET   0.000032 -41.789100  -0.002222
            CHANNELS 3 Zrotation Xrotation Yrotation
            JOINT LeftAnkle
            {
                OFFSET   0.000087 -41.133200  -0.000135
                CHANNELS 3 Zrotation Xrotation Yrotation
                JOINT LeftToe
                {
                    OFFSET   0.000000  -6.358960  14.674500
                    CHANNELS 3 Zrotation Xrotation Yrotation
                    End Site
                    {
                        OFFSET   0.000000   0.000000   3.913200
                    }
                }
            }
        }
    }
    JOINT RightHip
    {
        OFFSET  -9.783040   0.000000   0.000000
        CHANNELS 3 Zrotation Xrotation Yrotation
        JOINT RightKnee
        {
            OFFSET   0.000047 -41.789100  -0.000896
            CHANNELS 3 Zrotation Xrotation Yrotation
            JOINT RightAnkle
            {
                OFFSET  -0.000117 -41.133300  -0.000248
                CHANNELS 3 Zrotation Xrotation Yrotation
                JOINT RightToe
                {
                    OFFSET   0.000000  -6.358970  14.674500
                    CHANNELS 3 Zrotation Xrotation Yrotation
                    End Site
                    {
                        OFFSET   0.000000   0.000000   3.913200
                    }
                }
            }
        }
    }
}
MOTION
Frames: 4
Frame Time:   0.016667
 -2.117670  89.548400   1.693360  -1.978520  -0.710682   2.435350   1.238020   0.282382  -0.756199   2.479680   0.548333  -1.518340   0.396974   1.424160  -0.013803   0.653379   2.901120   4.597140  -4.155990   5.600640  -1.860040 -71.086100  14.552500  -6.215280  -1.115090  -9.622030  -5.738390   2.633970 -14.969300   8.375480  39.882400  29.242100 -69.733700 -12.123600   0.005606   0.004427  -1.061800   0.002974   0.002213 -25.765400   4.621860  -9.500520 -21.394400  -0.002229   0.004486 -14.976100  -0.003036   0.003013 -26.463300   2.149620  -4.321260 -26.544200  -0.003939   0.002267 -17.670700  -0.002984   0.001384 -26.210300   0.539905  -1.115390 -26.220200  -0.008982  -0.009798 -17.462200  -0.009662  -0.006618 -26.857700  -1.095370   2.147050 -40.299000   0.000418  -0.001797 -26.850800   0.000427  -0.001381   3.615300   0.057036   7.480450  71.613700   6.278400   0.128823   0.199282  -5.788510   5.365890  -9.425170 -13.358400   3.133450 -43.899900  33.145200  68.797500  22.583000   0.001617  -0.001407   6.287100   0.001820  -0.003385  29.514200   6.285150  10.920200  24.649800  -0.002838  -0.004180  17.253500  -0.002730  -0.002251  27.279200   3.549570   6.830090  29.181100  -0.006308   0.005033  19.434600  -0.005859  -0.004303  28.002100   1.790030   3.341600  32.353200   0.003546   0.001511  21.547200   0.007914  -0.000069  31.834300   0.698526   1.117770  47.761800   0.003087   0.004273  31.809400   0.003253  -0.002928   3.172090   3.478400   2.971770   0.385803   0.401489   9.437370  -3.011960  -2.376490  -0.061417   0.000000   0.000000  -0.000000   0.775651  -0.759928  -6.674130   1.642260   4.013150  -7.525760  -3.486900  -2.097240  -2.328250  -0.000000   0.000000  -0.000000
 -2.121170  89.548400   1.682350  -1.978150  -0.717576   2.441520   1.237450   0.289341  -0.754118   2.478630   0.562299  -1.514330   0.397087   1.424290  -0.013877   0.653333   2.895780   4.597180  -4.155340   5.592530  -1.873790 -71.090000  14.547000  -6.202310  -1.125040  -9.610990  -5.760500   2.626440 -14.949600   8.356090  39.892400  29.237900 -69.727400 -12.112600   0.005606   0.004422  -1.056290   0.002969   0.002216 -25.754300   4.622000  -9.500530 -21.385500  -0.002229   0.004484 -14.969600  -0.003036   0.003013 -26.456300   2.149630  -4.317750 -26.537300  -0.003937   0.002265 -17.670600  -0.002985   0.001383 -26.210100   0.539906  -1.108610 -26.220200  -0.008981  -0.009797 -17.462200  -0.009666  -0.006622 -26.857500  -1.095370   2.152580 -40.299700   0.000418  -0.001794 -26.850700   0.000427  -0.001380   3.615320   0.057213   7.471980  71.612700   6.319540   0.135486   0.212294  -5.713830   5.364970  -9.414290 -13.349500   3.134520 -43.890300  33.132200  68.801700  22.590400   0.001605  -0.001394   6.287090   0.001828  -0.003375  29.518400   6.285530  10.924300  24.649500  -0.002837  -0.004175  17.253500  -0.002730  -0.002251  27.278800   3.549570   6.836900  29.198000  -0.006307   0.005039  19.445900  -0.005853  -0.004302  28.001900   1.790240   3.347500  32.363100   0.003550   0.001509  21.553800   0.007920  -0.000069  31.840900   0.698563   1.125530  47.771600   0.003088   0.004272  31.815900   0.003251  -0.002926   3.171770   3.480990   2.972020   0.392716   0.400794   9.429940  -3.015810  -2.369680  -0.061366   0.000000   0.000000   0.000000   0.775727  -0.770463  -6.674140   1.643860   4.029620  -7.534980  -3.492150  -2.097400  -2.328270   0.000000   0.000000   0.000000
 -2.127320  89.548400   1.664450  -1.977500  -0.729959   2.450390   1.236210   0.300211  -0.749654   2.476280   0.584147  -1.505630   0.397199   1.424420  -0.013951   0.653243   2.887510   4.597210  -4.154990   5.584390  -1.894360 -71.094500  14.536100  -6.188880  -1.139000  -9.594090  -5.793390   2.619230 -14.930200   8.329520  39.900700  29.223300 -69.705300 -12.101500   0.005606   0.004412  -1.050780   0.002964   0.002219 -25.739200   4.622130  -9.500520 -21.373400  -0.002230   0.004482 -14.961400  -0.003037   0.003014 -26.449500   2.149650  -4.311900 -26.530400  -0.003933   0.002261 -17.670600  -0.002986   0.001381 -26.210100   0.539907  -1.096950 -26.220300  -0.008976  -0.009795 -17.462100  -0.009679  -0.006630 -26.857200  -1.095360   2.162790 -40.302600   0.000418  -0.001789 -26.850600   0.000425  -0.001376   3.615530   0.057449   7.458800  71.611600   6.382240   0.142156   0.232713  -5.605630   5.363740  -9.389310 -13.329300   3.139330 -43.857000  33.111000  68.793200  22.597900   0.001582  -0.001370   6.287090   0.001840  -0.003359  29.522500   6.285850  10.930700  24.647900  -0.002833  -0.004163  17.253500  -0.002728  -0.002248  27.278300   3.549590   6.846670  29.214900  -0.006300   0.005051  19.457100  -0.005843  -0.004299  28.001700   1.790450   3.353760  32.373100   0.003562   0.001505  21.560500   0.007935  -0.000068  31.847400   0.698647   1.134310  47.781400   0.003089   0.004268  31.822400   0.003248  -0.002919   3.170880   3.490860   2.972300   0.400351   0.395881   9.419500  -3.022000  -2.352460  -0.061010   0.000000   0.000000  -0.000000   0.775867  -0.780998  -6.674160   1.645470   4.046090  -7.544190  -3.501790  -2.097570  -2.328300  -0.000000   0.000000  -0.000000
 -2.132930  89.548400   1.651080  -1.976950  -0.741488   2.454110   1.234340   0.307263  -0.743468   2.472620   0.598411  -1.493410   0.397101   1.422380  -0.013902   0.653331   2.881930   4.593770  -4.156140   5.586330  -1.907830 -71.098500  14.520700  -6.188090  -1.144670  -9.581740  -5.811790   2.625790 -14.930800   8.321480  39.899200  29.185500 -69.660500 -12.102000   0.005604   0.004406  -1.051000   0.002966   0.002203 -25.734500   4.622060  -9.495790 -21.369700  -0.002230   0.004482 -14.959400  -0.003041   0.003013 -26.450400   2.150420  -4.306020 -26.531200  -0.003929   0.002253 -17.670600  -0.002988   0.001377 -26.210300   0.535698  -1.085810 -26.220300  -0.008969  -0.009795 -17.462100  -0.009699  -0.006641 -26.856900  -1.100460   2.174850 -40.310700   0.000415  -0.001781 -26.850700   0.000420  -0.001371   3.620790   0.057518   7.448370  71.612300   6.421850   0.135351   0.246255  -5.553010   5.364800  -9.350200 -13.297700   3.150370 -43.837200  33.087400  68.755000  22.594100   0.001558  -0.001341   6.287090   0.001844  -0.003352  29.511700   6.282500  10.936000  24.638200  -0.002826  -0.004150  17.247200  -0.002725  -0.002240  27.278000   3.549640   6.851670  29.202200  -0.006285   0.005068  19.448700  -0.005834  -0.004294  28.001800   1.788940   3.354180  32.360100   0.003585   0.001502  21.551900   0.007960  -0.000070  31.838900   0.698773   1.135500  47.768700   0.003089   0.004262  31.813900   0.003247  -0.002908   3.169210   3.516800   2.970050   0.407163   0.354183   9.415900  -3.025830  -2.317630  -0.056785   0.000000   0.000000  -0.000000   0.778197  -0.760934  -6.678660   1.650380   4.036120  -7.544020  -3.511640  -2.096830  -2.327960  -0.000000   0.000000   0.000000
